Coordinates
version=1
nRows=24
nColumns=22
inDegrees=yes

Units are S.I. units (second, meters, Newtons, ...)
If the header above contains a line with 'inDegrees', this indicates whether rotational values are in degrees (yes) or radians (no).

endheader
time	pelvis_tilt	pelvis_list	pelvis_rotation	pelvis_tx	pelvis_ty	pelvis_tz	hip_flexion_r	hip_adduction_r	hip_rotation_r	knee_angle_r	ankle_angle_r	subtalar_angle_r	hip_flexion_l	hip_adduction_l	hip_rotation_l	knee_angle_l	ankle_angle_l	subtalar_angle_l	lumbar_extension	lumbar_bending	lumbar_rotation
      3.75000000	      1.27744869	     -1.45047686	     74.75096076	      0.42301627	      0.91954481	     -0.42160080	     27.29814932	     -0.48840327	      6.73471717	    -15.71378764	      7.30738604	      5.32056676	     -2.50017046	      5.47052045	     19.81071563	    -26.28017505	     19.97045870	    -11.12239175	     -6.02421317	      1.42663258	     -5.91446109
      3.76000000	      1.37486739	     -1.50043376	     75.15089523	      0.42726057	      0.91882170	     -0.42871528	     27.41001823	     -0.15724488	      7.14094311	    -16.65914185	      6.24045995	      4.81298700	     -2.76374296	      5.19248682	     19.85417884	    -26.69908880	     19.95448932	    -10.81239306	     -5.95995985	      1.59860787	     -6.03446095
      3.77000000	      1.51873619	     -1.57031302	     75.55600423	      0.43150199	      0.91829314	     -0.43587682	     27.51238521	      0.22119346	      7.48407865	    -17.60080632	      5.11061201	      4.32573355	     -2.95430428	      4.86665425	     19.88359688	    -27.22289232	     19.85739851	    -10.41990646	     -5.88104632	      1.82956755	     -6.16267588
      3.78000000	      1.70612242	     -1.64885153	     75.96102934	      0.43573521	      0.91799377	     -0.44308151	     27.60340218	      0.63189025	      7.71707512	    -18.54146445	      4.01618961	      3.89591543	     -3.07601878	      4.50096034	     19.88722179	    -27.85659155	     19.66701588	     -9.94050603	     -5.79770628	      2.11332708	     -6.29710012
      3.79000000	      1.92851745	     -1.72333391	     76.35926398	      0.43994949	      0.91795250	     -0.45033989	     27.66557484	      1.05472294	      7.82394038	    -19.46568204	      3.05823300	      3.54174898	     -3.14116358	      4.11658185	     19.88049431	    -28.60100450	     19.34055880	     -9.35728167	     -5.71857663	      2.43790212	     -6.41236588
      3.80000000	      2.17939554	     -1.77937204	     76.74652248	      0.44414567	      0.91817225	     -0.45764364	     27.69033492	      1.47171276	      7.77341048	    -20.37823037	      2.29534976	      3.30923732	     -3.15527100	      3.71667111	     19.79967477	    -29.45390339	     18.89819405	     -8.71327291	     -5.65656092	      2.79199221	     -6.53178689
      3.81000000	      2.43863674	     -1.81046587	     77.10978718	      0.44834694	      0.91865006	     -0.46498179	     27.65626966	      1.86386805	      7.59241862	    -21.24412289	      1.77220885	      3.14515697	     -3.12227845	      3.33106555	     19.66122000	    -30.41397624	     18.29384048	     -7.93375370	     -5.61407453	      3.14310502	     -6.61749632
      3.82000000	      2.70041471	     -1.81308743	     77.44815846	      0.45252515	      0.91937110	     -0.47233910	     27.54648931	      2.22370671	      7.30827252	    -22.03797400	      1.48612608	      3.06930907	     -3.03876084	      2.96517669	     19.43574613	    -31.47992989	     17.52601742	     -7.05969533	     -5.59550367	      3.48848601	     -6.66893623
      3.83000000	      2.96367911	     -1.79134883	     77.76394899	      0.45669998	      0.92030413	     -0.47968168	     27.35986431	      2.55652072	      6.93055031	    -22.74667832	      1.39339849	      3.07658371	     -2.88890600	      2.60830743	     19.08202770	    -32.65431800	     16.58963757	     -6.14858043	     -5.59825870	      3.82193044	     -6.72090086
      3.84000000	      3.21456184	     -1.75619448	     78.05800655	      0.46085210	      0.92140094	     -0.48695853	     27.09516633	      2.86035953	      6.52103617	    -23.33815505	      1.44252601	      3.13496246	     -2.64875116	      2.27299039	     18.61316015	    -33.94442827	     15.46473474	     -5.18955016	     -5.61430595	      4.12966438	     -6.74827492
      3.85000000	      3.43810782	     -1.72071530	     78.33461668	      0.46495913	      0.92259892	     -0.49412424	     26.76597859	      3.12925157	      6.10047010	    -23.79906048	      1.58432452	      3.21664149	     -2.28710500	      1.96574180	     18.01603152	    -35.35907393	     14.17004573	     -4.17568553	     -5.63102106	      4.39628338	     -6.75549950
      3.86000000	      3.62783466	     -1.69171334	     78.59731387	      0.46901684	      0.92384369	     -0.50113486	     26.38772414	      3.36721931	      5.69523485	    -24.13486658	      1.77082071	      3.27577686	     -1.79527944	      1.68371620	     17.30061696	    -36.88693603	     12.70516594	     -3.15989284	     -5.64415827	      4.61363303	     -6.75977256
      3.87000000	      3.78208599	     -1.67379920	     78.85668600	      0.47299067	      0.92509054	     -0.50796383	     25.97089937	      3.57133751	      5.29612810	    -24.34767261	      1.96887738	      3.26746495	     -1.16669404	      1.41983656	     16.47916526	    -38.52067025	     11.09564631	     -2.16638234	     -5.65106581	      4.78250034	     -6.75519988
      3.88000000	      3.90797750	     -1.66386592	     79.11028651	      0.47688373	      0.92629801	     -0.51459014	     25.52914527	      3.75653938	      4.91728096	    -24.46972835	      2.19562889	      3.15408049	     -0.41579242	      1.16610579	     15.58519235	    -40.24873428	      9.40821977	     -1.14956491	     -5.65977345	      4.91061012	     -6.73845587
      3.89000000	      4.00914385	     -1.66263265	     79.36138336	      0.48069502	      0.92745788	     -0.52103324	     25.05909912	      3.92041810	      4.52289238	    -24.48961644	      2.40223858	      2.93229939	      0.44372033	      0.90491759	     14.61210760	    -42.04471140	      7.68459850	     -0.20004429	     -5.66551063	      5.00034522	     -6.70262535
      3.90000000	      4.10077538	     -1.65874176	     79.61136340	      0.48445757	      0.92855743	     -0.52727798	     24.56748837	      4.08723411	      4.14453236	    -24.45109587	      2.62360019	      2.58493938	      1.38070451	      0.62115446	     13.60290208	    -43.89258934	      6.00172860	      0.72014102	     -5.68663749	      5.06105249	     -6.64334447
      3.91000000	      4.18615185	     -1.63395003	     79.85140226	      0.48816652	      0.92962015	     -0.53334955	     24.04157907	      4.25840417	      3.79271896	    -24.36851535	      2.86875551	      2.09085287	      2.35294021	      0.31295281	     12.56295390	    -45.76472578	      4.42204813	      1.59352444	     -5.74173299	      5.09709614	     -6.55323720
      3.92000000	      4.28727618	     -1.62162096	     80.06646082	      0.49187641	      0.93059227	     -0.53924314	     23.53695068	      4.46415447	      3.43987692	    -24.27840909	      3.08720645	      1.68169414	      3.38201735	     -0.06622586	     11.45644898	    -47.64772099	      2.98504675	      2.27202765	     -5.79459548	      5.13522979	     -6.40062384
      3.93000000	      4.39054425	     -1.58791579	     80.25742559	      0.49557128	      0.93152347	     -0.54497575	     23.02143882	      4.69184223	      3.15127577	    -24.19528088	      3.32849212	      1.25796221	      4.41089807	     -0.48658787	     10.32617919	    -49.50914579	      1.73242269	      2.85851692	     -5.88154612	      5.15800273	     -6.21100723
      3.94000000	      4.48447930	     -1.55418511	     80.42522156	      0.49926917	      0.93237894	     -0.55056348	     22.52445991	      4.92835485	      2.90108155	    -24.12618832	      3.61550080	      0.77831246	      5.44702832	     -0.94240127	      9.18328458	    -51.32157165	      0.72253765	      3.35809058	     -5.96811704	      5.15100821	     -5.98836251
      3.95000000	      4.61079574	     -1.47453307	     80.55526458	      0.50296619	      0.93327066	     -0.55600218	     21.98955508	      5.21570774	      2.74704971	    -24.07143298	      3.86012280	      0.58740082	      6.41613146	     -1.47028611	      8.02236114	    -53.05435664	     -0.07601642	      3.65077350	     -6.12308824	      5.16278937	     -5.71823976
      3.96000000	      4.73288133	     -1.42405414	     80.65776250	      0.50665063	      0.93403763	     -0.56128517	     21.52758315	      5.51810646	      2.62656281	    -24.07168391	      4.12594770	      0.34885904	      7.40264813	     -2.03417314	      6.87483248	    -54.70310346	     -0.55928318	      3.83875819	     -6.24572785	      5.16322320	     -5.40915434
      3.97000000	      4.85141681	     -1.35672852	     80.74555736	      0.51027371	      0.93479862	     -0.56645998	     21.06376980	      5.82018846	      2.54300198	    -24.08820548	      4.40705457	      0.11879452	      8.33319732	     -2.60831861	      5.77703523	    -56.21874738	     -0.76761030	      3.88425708	     -6.38496442	      5.15128627	     -5.08988691
      3.98000000	      4.95025345	     -1.30285884	     80.83161538	      0.51378102	      0.93549839	     -0.57150711	     20.64440884	      6.10171065	      2.46856026	    -24.13548626	      4.67116137	     -0.30749541	      9.24600910	     -3.16241920	      4.75198803	    -57.59220331	     -0.74410381	      3.70612303	     -6.50317204	      5.11966357	     -4.77072187
